<svg xmlns="http://www.w3.org/2000/svg" xmlns:xlink="http://www.w3.org/1999/xlink" viewBox="0 0 706 2048">
  <defs>
    <clipPath id="clip-path">
      <path d="M559,351v-2c7.1-2.71,16.81-4.16,23-7-.12-17.44-21.22-32.95-32-41-8.92-6.66-15.92-17.4-25-24-17.21-12.51-35.92-18-58-26-10.52-3.8-30.46-8.64-44-6-5.76,85-21.89,171.87-43,247v9c-1.39,5-4.57,12-6,17q-1,8.5-2,17c-1,2.22-4.13,4.63-5,7-2,5.37-.16,9.2-2,15-3,9.42-6.24,22.46-10,31-7.27-2-4.88-12-7-19-6.5-21.47-8.2-43-14-66-13.42-53.22-22.41-113.26-38-166-3.52-11.9-.91-23.06-4-36-4.64-19.42-9.46-41-12-62h-1v-1H269c-2.63,1.65-7.14.05-11,1-7.18,1.77-17.34,2.9-25,6-31.94,12.91-62.47,24.26-88,43-8.66,6.36-14.67,22.58-19,33-2.75,6.63-2.91,13.81-7,19,.36,3.75.78,3.72,2,6,7.53.38,14.38,2.23,21,3v1h1c-1.63,6.1-17.9,24.15-23,28,.63,7.1,10.95,13.43,15,18,12.86,14.54,25.48,32.23,41,44,8.74,6.63,16.17,16.31,24,24,11.06,10.86,24.47,19.67,37,29l10,11c13.72,10.37,25.06,22.52,39,33l12,14c7.33,7.3,15.82,13.56,23,21,10.34,10.72,18.54,23.42,29,34,2.56-2.13,6.14-2.85,9-5,4.95-3.71,8.24-13,12-18,9.39-12.51,23-23,34-34l11-13c7.43-5.55,14.9-10,22-16l3-5c5.35-5.52,11.82-10.33,18-15l10-11c22.11-15.43,40.53-33.86,61-51,1.66-1.39,1.67-4.2,3-6l11-10c7-9.25,14.9-16.93,23-25,5.35-5.33,7.65-11.45,15-15C581.66,375.51,563.59,354,559,351Z" fill="none"/>
    </clipPath>
    <clipPath id="clip-path-2">
      <path d="M415,257c-11.9-2.29-30.78,3.85-37,8-4.49,1.84-9.65,12.21-11,17-24.57-.25-16.38-8.38-29-17a67.65,67.65,0,0,0-32-11c-4.11,6.56-7.07,15.88-12,22v39c19.13,4.59,46.58,2.19,52-13l22,1c2.27,1.33,3.7,6.32,6,8,4.89,3.56,35.87,15.5,46,9,3-1.87,1.69-3.42,3-7C431.52,289.76,419.8,274.2,415,257Z" fill="none"/>
    </clipPath>
    <clipPath id="clip-path-3">
      <path d="M230,756c-9.08-2.2-24.67.75-36-2a85.84,85.84,0,0,0-20-2,10.92,10.92,0,0,1-3,2c-.83,3.73-2.22,8.93-3,12v12c0,34.47,19.87,21.55,46,28,5.8,1.43,21.17,7.51,28,3,8.25-3.43,5.31-21.75,10-29,.08-7.31.91-17.36-1-23C245.56,755.92,236.53,757.58,230,756Zm304,8c-3.43-3.4-4.68-7.31-10-9-2-1.33-6.53-1.13-10-1-11,7.73-38.57-3.21-50,4h-2c-2,11.57,1,27.71,1,42,3.22,3.4,3.94,7.27,9,9,3.47,2.2,12.73,1,18,1,16.63,0,34.84-.47,45-7C533.65,791.66,533.92,776.91,534,764Z" fill="none"/>
    </clipPath>
    <clipPath id="clip-path-4">
      <path d="M363,661c-.15-5.64-1.26-6.53-3-10a33.79,33.79,0,0,0-8-1l-7,6c-.25,9.14,2.26,15,9,17,3,1.41,5.4-1.24,8-3C361.91,666.7,361.76,662.84,363,661ZM346,770c-2.72-.55-3.76-1.4-6,0-3.3,1.23-5.95,4.58-7,8-2.44,4.83,2.67,13.52,5,17l10,1c0-4.22-.23-7.61-2-10Z" fill="none"/>
    </clipPath>
    <clipPath id="clip-path-5">
      <path d="M499,413v-2c-12.37,1.39-24,12.16-33,18-2.71,1.76-5.1,1.31-8,3-3.73,2.17-6.41,6.44-11,8-.33,1.67-.67,3.33-1,5,14.44-.18,31.06-.66,44-4,4.58-1.18,8-3.6,14-4C504,427.79,503,418.59,499,413Z" fill="none"/>
    </clipPath>
    <clipPath id="clip-path-6">
      <path d="M384,402V360c-3.09-12.64-.69-30.81-4-44-4.48-17.84-20.1-23.42-10-45,4.69-1.28,7.62-3,14-3-.4-2.05-.25-1.93-1-3-5.54-13.2-56.33-20.55-62-3h-1c2.2,3.16,6.69,1.05,10,3,4.18,2.47,11.38,12.13,13,17,2.36,3.89.68,12.55-1,16-2.23,4.59-7,9.27-9,14-1.81,4.2-2.13,12.46-3,16v34c-5.55,22.37-2,56.06-2,82,0,15-3.16,28,0,40,.7,2.66,3.3,5.63,4,8,3.07,10.39,1.27,17.5,4,28,1.53,5.87,5.08,10.12,4,16-1.83,10,4.87,22,7,29,.73,2.41-2.19,5.11-1,9,1.13,3.71,7,9.8,3,16,.08,4.5.63,5.46,2,8,2.53-.11,3.71-.12,5-1,2.7-4,.51-9.19,2-15l6-16c2.59-9.43,1.14-16.24,4-26,.84-2.87,4-7.13,5-10l3-24C383.32,479.1,392.55,437.81,384,402Z" fill="none"/>
    </clipPath>
    <clipPath id="clip-path-7">
      <path d="M503,1516v-32c-4.27-16-1.6-40.26-6-57v-17c-4-15.92-1.91-39.4-6-56v-18c-1.36-5.09-2.72-16.81-4-22v-20c-1-2.87-3.19-10.72-4-14v-16c-7.95-29.82-6.07-65.43-14-95-3.16-11.77,1-21.16-2-33a219.12,219.12,0,0,1-6-46c-.08-8.77-2.42-27,2-32a14.17,14.17,0,0,0-1-4c-15.59-6.1-53.74-2-74-2-7.35,0-12.36-.41-17-2-10.45-3.58-28.24,1.36-36,2H244c.42,34.58,1.94,76.15-5,108v23c-4.61,20.86-2.51,47.53-7,68v17c-1.28,5.79-2.08,14.87-3,21v18c-9.46,42.72-7.41,90.35-17,132-6.35,27.57-3.81,56.45-10,84-2.13,9.49,1.2,29.92-3,37-.15,11.41-1.26,26.06,3,33,14.09.1,26.58,2.93,38,6h9c8.94,2.41,22.42,3.72,31,6h17c9.54,2.54,24.75,3.34,35,6h8c1.1.53,1.48,3.54,3,4,2.1.63,6.69-1.47,9-1,13.53,2.73,30.11,1.29,44,5h14c13.24,3.28,32.43,2.62,46,6,9.28,2.31,21.41-2.43,28,2,7.56.07,12.38-.44,15-5,6.5-11.3.2-26.72,4-42C507,1564,506.84,1532,503,1516Z" fill="none"/>
    </clipPath>
    <clipPath id="clip-path-8">
      <path d="M615,865c0-18.63,2-42.71-2-58V792c0-12.24.25-26.74-2-36V723c0-11,.09-24-2-32V676c0-13,.59-29.07-2-39V608c-2.33-8.94.91-24.84-2-36-5.23-20-1.08-47.82-6-68V480c-1.33-5.08-2.74-16.82-4-22V430c-9.37-35.95-5-81.81-22-110-6.92-11.49-45.18-19.28-60-25-27-10.42-55.24-21.14-77-37-6.85-5-8.57-13.57-14-20v-1h-2c-.07,11.66-2,18.92-4,27-3.71,14.95,1.6,31.43-2,46-7.55,30.52-8.53,64.75-16,94-5.11,20-3.94,40.86-10,60-.9,2.85-4.37,5.09-5,8-1.09,5,.83,11.08-1,18-2.09,7.9-5.8,17.33-8,26q-.5,7-1,14c-1.1,3-4.07,6.58-5,10-2.84,10.4-.75,22-6,30v2c-8.75,1.79-14.94-4.54-17-12-1.31-3.4,3.38-4.89,2-10-1-3.6-6-6.41-7-10,.33-3,.67-6,1-9-.25-.8-2.75-2.42-3-3-2.29-5.21-.41-9.83-2-16-2.12-8.22-5.82-20.5-8-28V472c-12.08-45.81-20.08-97.33-32-144V316c-2.21-8.8-4-22.14-6-30V266c-2.21-8.54-6-15.76-7-27h-2c-4.28,16.53-16.77,20.38-30,28-22.37,12.88-50.45,24.34-76,34-23.42,8.85-40.36,8.58-50,32-4.54,11-3,21.5-6,34-6.47,27.27-5.74,60.89-12,89-2.13,9.56-.2,19.73-2,28-3.27,15,1.37,27.67-2,43-7.72,35.13-.25,79.49-8,115v25c-3.52,16.17-.47,36.83-4,53-2.11,9.69.84,22.55-1,31v35c-3.14,14.42,1.48,32-2,48-1.7,7.81,1,20-1,29-4.58,21.06-1.12,54.51-1,78h46c5.28,0,14.51-1.19,18,1h4c.65,1.73.2,1,1,2v54c4.47,10,33.1,13.41,46,17a207.08,207.08,0,0,0,59,8h16c16.65-4.4,41.14-25.5,44-43,2.05-.4,1.93-.25,3-1,5.93-.08,13.64-.49,18,1,1.51,7.92,3.57,51.69,1,60-1,3.21-2.8,4.41-3,10h31c-.13-4.65-.73-6.69-3-9-.07-15.49-3-49.91,1-62h14l6,14c6.45,9.94,18.64,23.22,30,28,9.89,4.16,27.91,2,41,2,29-.1,69.74-13.21,88-25-.08-15-3.11-42.66,1-55,19-4.1,46.66-2.16,69-2C617,914.28,615,889.46,615,865ZM188,668c-1.84,7.59.57,13.28-2,20-.22.57-2.72,3-3,4q-.5,14-1,28c-2.34,8.75-7.64,14.55-8,26h-2c.24-69.38,6.25-136,6-206,6.57,4.17,7.4,32,10,42C192.31,598.49,192,651.39,188,668Zm344,87c-6.9-4.33-5.67-31.38-9-41-8.32-24.06-17.39-84.78-10-116V584c2-8.3,2.41-19.23,5-28,1.83-6.2,5.25-12.25,6-19,7.93,4.41,4,35.6,4,49q1,32,2,64c0,15.58-2,35.23,1,49,1.91,8.82-3.14,23.16,1,30Z" fill="none"/>
    </clipPath>
  </defs>
  <g id="Layer_0_Image" data-name="Layer 0 Image">
    <image id="Layer_0_Image-2" data-name="Layer 0 Image" width="706" height="2048" xlink:href="Suit1.png"/>
  </g>
  <g id="BaseBody_Image" data-name="BaseBody Image">
    <image id="BaseBody_Image-2" data-name="BaseBody Image" width="533" height="1892" transform="translate(85 81)" xlink:href="Suit2.png"/>
  </g>
  <g id="ShowPockets_Image" data-name="ShowPockets Image">
    <image id="ShowPockets_Image-2" data-name="ShowPockets Image" width="368" height="60" transform="translate(167 751)" xlink:href="Suit3.png"/>
  </g>
  <g id="ShowButon_Image" data-name="ShowButon Image">
    <image id="ShowButon_Image-2" data-name="ShowButon Image" width="52" height="26" transform="translate(333 771)" xlink:href="Suit4.png"/>
  </g>
  <g id="ShowBigLapel_Image" data-name="ShowBigLapel Image">
    <image id="ShowBigLapel_Image-2" data-name="ShowBigLapel Image" width="483" height="373" transform="translate(118 236)" xlink:href="Suit5.png"/>
  </g>
  <g id="BigLapel" style="isolation: isolate">
    <g clip-path="url(#clip-path)">
      <image id="BigLapel_Image" data-name="BigLapel Image" width="706" height="2048" xlink:href="Suit6.png"/>
    </g>
  </g>
  <g id="ShowHand_Image" data-name="ShowHand Image">
    <image id="ShowHand_Image-2" data-name="ShowHand Image" width="62" height="38" transform="translate(442 408)" xlink:href="Suit7.png"/>
  </g>
  <g id="ShowTie_Image" data-name="ShowTie Image">
    <image id="ShowTie_Image-2" data-name="ShowTie Image" width="70" height="348" transform="translate(321 251)" xlink:href="Suit8.png"/>
  </g>
  <g id="ShowBowtie_Image" data-name="ShowBowtie Image">
    <image id="ShowBowtie_Image-2" data-name="ShowBowtie Image" width="135" height="69" transform="translate(293 253)" xlink:href="Suit9.png"/>
  </g>
  <g id="Bowtie" style="isolation: isolate">
    <g clip-path="url(#clip-path-2)">
      <image id="Bowtie_Image" data-name="Bowtie Image" width="706" height="2048" xlink:href="Suit10.png"/>
    </g>
  </g>
  <g id="Pockets" style="isolation: isolate">
    <g clip-path="url(#clip-path-3)">
      <image id="Pockets_Image" data-name="Pockets Image" width="706" height="2048" xlink:href="Suit11.png"/>
    </g>
  </g>
  <g id="Button" style="isolation: isolate">
    <g clip-path="url(#clip-path-4)">
      <image id="Button_Image" data-name="Button Image" width="706" height="2048" xlink:href="Suit12.png"/>
    </g>
  </g>
  <g id="Hand" style="isolation: isolate">
    <g clip-path="url(#clip-path-5)">
      <image id="Hand_Image" data-name="Hand Image" width="706" height="2048" xlink:href="Suit13.png"/>
    </g>
  </g>
  <g id="Tie" style="isolation: isolate">
    <g clip-path="url(#clip-path-6)">
      <image id="Tie_Image" data-name="Tie Image" width="706" height="2048" xlink:href="Suit14.png"/>
    </g>
  </g>
  <g id="Pants" style="isolation: isolate">
    <g clip-path="url(#clip-path-7)">
      <image id="Pants_Image" data-name="Pants Image" width="706" height="2048" xlink:href="Suit15.png"/>
    </g>
  </g>
  <g id="Shirt" style="isolation: isolate">
    <g clip-path="url(#clip-path-8)">
      <image id="Shirt_Image" data-name="Shirt Image" width="706" height="2048" xlink:href="Suit16.png"/>
    </g>
  </g>
</svg>
